HIERARCHY
ROOT pelvis
{
  OFFSET 0 100 0
  CHANNELS 6 Xposition Yposition Zposition Zrotation Xrotation Yrotation
  JOINT pelvis_right_femur
  {
    OFFSET -10.78128 -3.44521 -0.5502486
    CHANNELS 3 Zrotation Xrotation Yrotation
    JOINT right_femur_tibia
    {
      OFFSET -0.8047443 -44.0398 -0.1307829
      CHANNELS 3 Zrotation Xrotation Yrotation
      JOINT right_tibia_foot
      {
        OFFSET 3.006224 -47.83518 -5
        CHANNELS 3 Zrotation Xrotation Yrotation
        End Site
        {
          OFFSET 0 -5 15
        }
      }
    }
  }
  JOINT pelvis_left_femur
  {
    OFFSET 10.78128 -3.44521 -0.5502486
    CHANNELS 3 Zrotation Xrotation Yrotation
    JOINT left_femur_tibia
    {
      OFFSET 0.8047443 -44.0398 -0.1307829
      CHANNELS 3 Zrotation Xrotation Yrotation
      JOINT left_tibia_foot
      {
        OFFSET -4.370144 -48.10324 -4.275266
        CHANNELS 3 Zrotation Xrotation Yrotation
        End Site
        {
          OFFSET 0 -5 15
        }
      }
    }
  }
  JOINT pelvis_spine1
  {
    OFFSET 0 6.468898 -3.129235
    CHANNELS 3 Zrotation Xrotation Yrotation
    JOINT spine1
    {
      OFFSET 0 23.15396 4.99043
      CHANNELS 3 Zrotation Xrotation Yrotation
      JOINT spine2
      {
        OFFSET 0 20.79997 -5.064912
        CHANNELS 3 Zrotation Xrotation Yrotation
        JOINT neck
        {
          OFFSET 0 14.38658 9.616178
          CHANNELS 3 Zrotation Xrotation Yrotation
          End Site
          {
            OFFSET 0 20 0
          }
        }
      }
      JOINT right_manubrium
      {
        OFFSET -5.722621 16.35077 3.967754
        CHANNELS 3 Zrotation Xrotation Yrotation
        JOINT right_clavicle
        {
          OFFSET -13.16364 1.694482 -4.693211
          CHANNELS 3 Zrotation Xrotation Yrotation
          JOINT right_humerus
          {
            OFFSET -28.5034 -0.3100689 -2.792744
            CHANNELS 3 Zrotation Xrotation Yrotation
            JOINT right_radius
            {
              OFFSET -25.15693 0.02248979 -1.271978
              CHANNELS 3 Zrotation Xrotation Yrotation
              End Site
              {
                OFFSET -15 0 0
              }
            }
          }
        }
      }
      JOINT left_manubrium
      {
        OFFSET 5.722621 16.35077 3.967754
        CHANNELS 3 Zrotation Xrotation Yrotation
        JOINT left_clavicle
        {
          OFFSET 13.16364 1.694482 -4.693211
          CHANNELS 3 Zrotation Xrotation Yrotation
          JOINT left_humerus
          {
            OFFSET 29.39168 -1.063119 -2.237045
            CHANNELS 3 Zrotation Xrotation Yrotation
            JOINT left_radius
            {
              OFFSET 24.59957 -0.9528479 0.9047498
              CHANNELS 3 Zrotation Xrotation Yrotation
              End Site
              {
                OFFSET 15 -0 -0
              }
            }
          }
        }
      }
    }
  }
}
MOTION
Frames: 21
Frame Time: 0.0416666666667
-1446.725 108.0583 1837.442 -12.64811 2.742899 -110.411 -1.586942 21.24509 -3.715822 -0 36.98374 -0 -15.76003 5.523556 5.333064 -4.796891 -7.785013 -16.55344 -0 13.97274 -0 -4.46387 -6.519922 21.80873 -1.522931 -1.834049 8.299628 -0.1401167 13.54186 -5.500629 -1.452389 20.61015 6.182878 7.137279 -13.87076 0.9065931 3.458866 -25.7236 12.55698 83.69591 27.58114 -11.41536 -0 0 25.10576 -19.69516 7.960338 7.402484 4.971662 -25.56093 -9.532801 -94.35505 5.6489 33.43706 0 0 -2.530075 13.58288 10.81177 -3.682323
-1452.705 108.8461 1836.303 -13.43883 2.58114 -110.0282 -2.218672 18.98152 -4.259817 -0 42.01364 -0 -16.99087 9.948755 6.408963 -5.551482 -5.00313 -17.68691 -0 14.70041 -0 -4.597602 -7.889326 22.17027 -1.960403 -1.792833 8.078731 -0.514236 13.24089 -5.156761 -1.715891 20.63493 6.961433 8.312723 -13.23384 0.4844172 4.601576 -24.46803 12.22372 82.47711 28.56146 -11.35869 -0 0 24.83861 -20.06586 7.611327 7.299057 6.030805 -26.10045 -9.543198 -94.23511 5.234586 32.00544 0 0 -2.481701 14.33916 10.24898 -4.115714
-1458.329 109.6935 1835.194 -13.96339 2.633802 -109.4957 -2.25063 15.22902 -4.88278 -0 45.75683 -0 -17.86788 12.49689 6.839231 -5.749547 -1.868096 -17.9659 -0 14.69883 -0 -4.102722 -9.189334 22.136 -2.513919 -1.778971 7.787654 -0.9589818 12.85025 -4.745571 -2.002919 20.65116 7.879411 9.636616 -12.60195 0.05978078 5.891981 -23.0792 11.77356 80.9957 29.69638 -11.11838 -0 0 24.69724 -20.56591 7.246928 7.270578 7.324187 -26.65201 -9.392791 -94.13969 4.838223 30.3157 0 0 -2.299856 15.17179 9.607822 -4.592745
-1463.57 110.4691 1834.126 -14.13694 2.776828 -108.9271 -1.899613 10.49363 -5.640871 -0 47.15793 -0 -18.21073 12.90856 6.616787 -5.618862 1.379075 -17.63112 -0 14.03147 -0 -3.2643 -10.57179 21.73861 -3.138974 -1.807618 7.432326 -1.432972 12.40921 -4.318627 -2.26901 20.65706 8.84033 10.95961 -12.0652 -0.3011855 7.190743 -21.6888 11.23929 79.40061 30.85138 -10.70522 -0 0 24.71619 -21.1751 6.93791 7.334473 8.758319 -27.15578 -9.043833 -94.0639 4.542052 28.44579 0 0 -2.027803 15.97943 8.981753 -5.071241
-1468.469 111.0368 1833.083 -13.93417 2.854222 -108.4134 -1.439772 5.395223 -6.525775 -0 45.73458 -0 -17.99223 11.56744 5.936375 -5.409747 4.491287 -16.99213 -0 12.91165 -0 -2.374084 -12.13346 21.0608 -3.767238 -1.881505 7.031577 -1.884883 11.98415 -3.943557 -2.463429 20.65803 9.716653 12.11053 -11.69544 -0.5349906 8.340118 -20.43149 10.69115 77.91474 31.90887 -10.20559 -0 0 24.86635 -21.8366 6.745247 7.460137 10.19215 -27.55865 -8.512725 -93.96705 4.391988 26.4835 0 0 -1.771905 16.68694 8.485038 -5.573306
-1473.112 111.2927 1832.039 -13.37926 2.762348 -108.0026 -1.059499 0.4237102 -7.485387 -0 41.77048 -0 -17.32199 9.213594 5.087938 -5.289979 7.278699 -16.28396 -0 11.62974 -0 -1.581997 -13.84715 20.22966 -4.325701 -1.98786 6.614231 -2.270343 11.64564 -3.678931 -2.547892 20.66193 10.39389 12.95715 -11.52443 -0.6056311 9.215767 -19.40188 10.21238 76.76043 32.81415 -9.75083 -0 0 25.06211 -22.4747 6.700619 7.578438 11.48024 -27.83386 -7.872029 -93.79058 4.369524 24.5079 0 0 -1.669631 17.27377 8.20614 -6.182399
-1477.603 111.1872 1830.963 -12.53643 2.485886 -107.7028 -0.8138507 -4.155522 -8.439216 -0 36.10642 -0 -16.36924 6.612008 4.316888 -5.318663 9.636154 -15.61352 -0 10.48234 -0 -0.8599249 -15.57682 19.39426 -4.757766 -2.102611 6.209843 -2.563379 11.44049 -3.554313 -2.509863 20.67329 10.81139 13.4466 -11.5474 -0.5128389 9.760008 -18.63217 9.865974 76.08414 33.57682 -9.463347 -0 0 25.19322 -23.02214 6.799895 7.615218 12.51935 -27.98673 -7.22047 -93.48729 4.405851 22.57624 0 0 -1.843526 17.772 8.173115 -6.996888
-1482.046 110.7289 1829.83 -11.49978 2.08039 -107.4975 -0.6572791 -8.256241 -9.300072 -0 29.7469 -0 -15.30722 4.34446 3.756132 -5.475621 11.53645 -14.98067 -0 9.729766 -0 -0.07329518 -17.14175 18.68645 -5.032765 -2.198986 5.840108 -2.755223 11.37747 -3.568709 -2.362214 20.6913 10.97198 13.5991 -11.74367 -0.2794635 9.976148 -18.1023 9.67711 75.93316 34.22976 -9.42224 -0 0 25.15846 -23.43709 7.011639 7.525095 13.26598 -28.04282 -6.643545 -93.04026 4.428366 20.72698 0 0 -2.371369 18.2342 8.354343 -8.069545
-1486.53 109.9736 1828.62 -10.38013 1.633334 -107.3612 -0.5010845 -11.87286 -9.998426 -0 23.54352 -0 -14.28894 2.745762 3.432913 -5.703462 13.00599 -14.32798 -0 9.586781 -0 0.9076636 -18.3764 18.1813 -5.143446 -2.255401 5.516586 -2.846514 11.43319 -3.702017 -2.13329 20.71244 10.92189 13.47308 -12.09244 0.06553894 9.900455 -17.76811 9.637572 76.28028 34.78631 -9.659644 -0 0 24.8879 -23.70315 7.291527 7.304735 13.7222 -28.03054 -6.191924 -92.46387 4.400891 18.99484 0 0 -3.27656 18.6964 8.684664 -9.372657
-1491.133 109.0103 1827.315 -9.291087 1.232242 -107.2717 -0.2562445 -14.99836 -10.49235 -0 18.06437 -0 -13.43367 1.931175 3.306229 -5.937396 14.09648 -13.58628 -0 10.2339 -0 2.124556 -19.15838 17.87647 -5.100253 -2.259945 5.243726 -2.842557 11.5691 -3.926268 -1.856289 20.73441 10.72254 13.13533 -12.57336 0.493621 9.580285 -17.58596 9.71986 77.05531 35.2276 -10.16776 -0 0 24.35579 -23.82143 7.593464 6.984253 13.91279 -27.97105 -5.882925 -91.79456 4.332021 17.4236 0 0 -4.524859 19.16104 9.093047 -10.80536
-1495.926 107.9498 1825.897 -8.33771 0.9490292 -107.2172 0.1481378 -17.58202 -10.75816 -0 13.61338 -0 -12.81682 1.857761 3.302062 -6.118484 14.85802 -12.70404 -0 11.83224 -0 3.504745 -19.40834 17.69983 -4.927048 -2.21129 5.022913 -2.75361 11.74845 -4.21125 -1.56209 20.75851 10.4301 12.64781 -13.15891 0.974597 9.06683 -17.52458 9.889796 78.16264 35.51787 -10.90343 -0 0 23.58559 -23.80379 7.87602 6.608608 13.87036 -27.87693 -5.713064 -91.08005 4.257524 16.06715 0 0 -6.024924 19.60325 9.519819 -12.23118
-1500.962 106.9158 1824.348 -7.609211 0.8365765 -107.2008 0.7618469 -19.52081 -10.77268 -0 10.31392 -0 -12.46582 2.383755 3.335079 -6.195727 15.31443 -11.66256 -0 14.52794 -0 4.885478 -19.07796 17.54137 -4.656697 -2.116698 4.855127 -2.595923 11.94641 -4.52692 -1.275201 20.78969 10.0858 12.06384 -13.8103 1.475191 8.413756 -17.5669 10.11485 79.492 35.62748 -11.79407 -0 0 22.64405 -23.66887 8.106547 6.221111 13.62852 -27.75424 -5.669921 -90.37055 4.217053 14.98196 0 0 -7.640015 19.98784 9.923907 -13.52055
-1506.278 106.0375 1822.653 -7.174735 0.9299425 -107.2422 1.611895 -20.67138 -10.50329 -0 8.186986 -0 -12.36475 3.310232 3.319452 -6.123892 15.44129 -10.48298 -0 18.43569 -0 6.065856 -18.14029 17.29731 -4.325231 -1.988482 4.742213 -2.39033 12.15259 -4.845385 -1.012148 20.83484 9.714086 11.42629 -14.48087 1.961705 7.67429 -17.70759 10.36893 80.93084 35.54734 -12.74946 -0 0 21.6257 -23.43907 8.263712 5.854764 13.21836 -27.60433 -5.739094 -89.7132 4.238852 14.21963 0 0 -9.210597 20.28365 10.28329 -14.57824
-1511.873 105.439 1820.807 -7.079811 1.245767 -107.3764 2.691153 -20.87423 -9.918923 -0 7.186688 -0 -12.4676 4.402698 3.177335 -5.863125 15.14971 -9.228566 -0 23.59224 -0 6.866727 -16.59406 16.91371 -3.965967 -1.840531 4.687398 -2.158798 12.36792 -5.142886 -0.7819692 20.90041 9.325403 10.76639 -15.12339 2.404349 6.896507 -17.94998 10.6343 82.37704 35.29067 -13.67646 -0 0 20.63459 -23.13764 8.337951 5.531061 12.66603 -27.42483 -5.906851 -89.14948 4.334746 13.8243 0 0 -10.57914 20.46999 10.59141 -15.35068
-1517.703 105.2214 1818.819 -7.340887 1.77614 -107.6488 3.936424 -19.98915 -9.023605 -0 7.185455 -0 -12.71852 5.399711 2.852544 -5.385452 14.28468 -7.999829 -0 29.87586 -0 7.185085 -14.48988 16.41659 -3.605401 -1.686051 4.695337 -1.920734 12.59908 -5.401273 -0.5881364 20.99023 8.92086 10.10399 -15.69691 2.780272 6.119269 -18.30358 10.90121 83.74744 34.88603 -14.49121 -0 0 19.76961 -22.78629 8.330157 5.263122 11.99178 -27.21074 -6.160231 -88.71466 4.501904 13.83364 0 0 -11.60978 20.53602 10.85205 -15.81859
-1523.665 105.4381 1816.718 -7.936477 2.477732 -108.1034 5.212386 -17.94329 -7.895341 -0 7.931172 -0 -13.0739 6.024843 2.329758 -4.689773 12.65181 -6.914426 -0 36.90335 -0 7.030562 -11.97403 15.91402 -3.261539 -1.53687 4.771687 -1.690302 12.8527 -5.608799 -0.4309833 21.10364 8.497018 9.449462 -16.17062 3.074372 5.370336 -18.78175 11.16595 84.97993 34.36741 -15.126 -0 0 19.11548 -22.40373 8.249743 5.060188 11.21108 -26.95602 -6.485725 -88.43807 4.727299 14.2799 0 0 -12.20117 20.47617 11.07451 -15.98321
-1529.608 106.0685 1814.55 -8.796302 3.264145 -108.7636 6.330985 -14.78604 -6.69388 -0 9.030758 -0 -13.51348 6.024275 1.648547 -3.816687 10.08538 -6.067694 -0 43.9455 -0 6.529395 -9.319462 15.55754 -2.944254 -1.403947 4.922123 -1.475039 13.13028 -5.760426 -0.309957 21.23422 8.050258 8.806811 -16.52497 3.278591 4.666896 -19.39874 11.42801 86.03026 33.76545 -15.53162 -0 0 18.73819 -22.00539 8.11322 4.931529 10.33796 -26.65607 -6.867068 -88.34325 4.992186 15.1882 0 0 -12.29444 20.28503 11.26999 -15.85278
-1535.37 107.0042 1812.37 -9.794115 4.016044 -109.614 7.121337 -10.72901 -5.608663 -0 10.02422 -0 -14.02381 5.239809 0.8950134 -2.841178 6.549365 -5.486523 -0 49.93231 -0 5.885806 -6.889187 15.46993 -2.656927 -1.298249 5.150699 -1.275682 13.4243 -5.857783 -0.2252884 21.36885 7.580767 8.177692 -16.75114 3.390738 4.018282 -20.16504 11.68717 86.86645 33.10263 -15.67773 -0 0 18.6824 -21.60373 7.943539 4.888421 9.389966 -26.31076 -7.282706 -88.44724 5.275258 16.57 0 0 -11.87856 19.95415 11.44858 -15.43354
-1540.829 108.0608 1810.228 -10.75445 4.619325 -110.5942 7.518007 -6.138562 -4.764386 -0 10.55782 -0 -14.55315 3.682967 0.1651398 -1.827774 2.225566 -5.107695 -0 53.61943 -0 5.306217 -5.002682 15.6764 -2.398641 -1.230904 5.457607 -1.087134 13.71639 -5.908719 -0.1787857 21.48781 7.095948 7.565774 -16.85007 3.413698 3.430098 -21.08079 11.941 87.46451 32.39317 -15.55424 -0 0 18.96786 -21.20864 7.769313 4.943111 8.393386 -25.92756 -7.704247 -88.75834 5.554315 18.4119 0 0 -10.99373 19.47308 11.61642 -14.72814
-1545.95 109.017 1808.156 -11.48432 5.018588 -111.6154 7.599451 -1.464125 -4.149961 -0 10.55752 -0 -14.97365 1.535347 -0.4802141 -0.7773291 -2.476551 -4.805462 -0 53.92978 -0 4.915175 -3.769508 16.08556 -2.16624 -1.211643 5.836536 -0.9006125 13.9788 -5.926119 -0.1733747 21.56717 6.612285 6.980247 -16.83207 3.355367 2.907975 -22.12815 12.18355 87.80899 31.64672 -15.17508 -0 0 19.58298 -20.82743 7.622176 5.104346 7.386017 -25.52347 -8.097905 -89.27139 5.807584 20.66137 0 0 -9.732137 18.8352 11.77288 -13.74211
-1550.798 109.6689 1806.175 -11.83008 5.247235 -112.5924 7.535214 2.875401 -3.629792 -0 10.26212 -0 -15.10164 -0.9555542 -1.036936 0.3670092 -7.012164 -4.460081 -0 50.38078 -0 4.713059 -3.029066 16.53264 -1.95568 -1.245417 6.272264 -0.7069885 14.18053 -5.925698 -0.2110473 21.5845 6.153959 6.436562 -16.71689 3.229145 2.458432 -23.26543 12.40593 87.90043 30.87266 -14.58334 -0 0 20.47692 -20.46528 7.531201 5.370855 6.415008 -25.12435 -8.430367 -89.96135 6.016676 23.21429 0 0 -8.232787 18.04711 11.9095 -12.49678
